HIERARCHY
ROOT Hips
{
  OFFSET 3.86961 92.669 -2.18517
  CHANNELS 6 Xposition Yposition Zposition Zrotation Xrotation Yrotation
  JOINT ToSpine
  {
    OFFSET -2.69724 7.43032 -0.144315
    CHANNELS 3 Zrotation Xrotation Yrotation
    JOINT Spine
    {
      OFFSET -0.0310711 10.7595 1.96963
      CHANNELS 3 Zrotation Xrotation Yrotation
      JOINT Spine1
      {
        OFFSET 13.1342 3.43533 0.764692
        CHANNELS 3 Zrotation Xrotation Yrotation
        JOINT Neck
        {
          OFFSET 29.8703 7.82586 -0.130764
          CHANNELS 3 Zrotation Xrotation Yrotation
          JOINT Head
          {
            OFFSET 9.52751 0.295786 -0.907742
            CHANNELS 3 Zrotation Xrotation Yrotation
            End Site
            {
              OFFSET 16.4037 0.713936 2.7358
            }
          }
        }
        JOINT LeftShoulder
        {
          OFFSET 27.5574 4.95586 2.47156
          CHANNELS 3 Zrotation Xrotation Yrotation
          JOINT LeftArm
          {
            OFFSET 1.20734 -0.998971 20.1238
            CHANNELS 3 Zrotation Xrotation Yrotation
            JOINT LeftForeArm
            {
              OFFSET 26.8049 -0.0536703 -0.155908
              CHANNELS 3 Zrotation Xrotation Yrotation
              JOINT LeftHand
              {
                OFFSET 26.6817 0 0.320147
                CHANNELS 3 Zrotation Xrotation Yrotation
                End Site
                {
                  OFFSET 18.6119 0 0.382219
                }
              }
            }
          }
        }
        JOINT RightShoulder
        {
          OFFSET 27.5927 4.71444 -2.65209
          CHANNELS 3 Zrotation Xrotation Yrotation
          JOINT RightArm
          {
            OFFSET 2.83739 -1.17114 -18.7564
            CHANNELS 3 Zrotation Xrotation Yrotation
            JOINT RightForeArm
            {
              OFFSET 28.839 -0.0548439 1.22491
              CHANNELS 3 Zrotation Xrotation Yrotation
              JOINT RightHand
              {
                OFFSET 26.5114 0 -0.101894
                CHANNELS 3 Zrotation Xrotation Yrotation
                End Site
                {
                  OFFSET 18.2168 0 0
                }
              }
            }
          }
        }
      }
    }
  }
  JOINT LeftUpLeg
  {
    OFFSET -4.76168 -1.9167 -10.2353
    CHANNELS 3 Zrotation Xrotation Yrotation
    JOINT LeftLeg
    {
      OFFSET 2.55951 -42.0585 -8.02213
      CHANNELS 3 Zrotation Xrotation Yrotation
      JOINT LeftFoot
      {
        OFFSET 3.16357 -42.5282 -3.95426
        CHANNELS 3 Zrotation Xrotation Yrotation
        JOINT LeftToeBase
        {
          OFFSET 0.346054 -6.02161 12.8035
          CHANNELS 3 Zrotation Xrotation Yrotation
          End Site
          {
            OFFSET 0.134235 -1.35082 5.13018
          }
        }
      }
    }
  }
  JOINT RightUpLeg
  {
    OFFSET -4.94151 -1.41743 10.6446
    CHANNELS 3 Zrotation Xrotation Yrotation
    JOINT RightLeg
    {
      OFFSET -2.56294 -42.0364 -7.94377
      CHANNELS 3 Zrotation Xrotation Yrotation
      JOINT RightFoot
      {
        OFFSET -3.0952 -42.555 -4.02241
        CHANNELS 3 Zrotation Xrotation Yrotation
        JOINT RightToeBase
        {
          OFFSET -0.0828122 -6.13587 12.8035
          CHANNELS 3 Zrotation Xrotation Yrotation
          End Site
          {
            OFFSET -0.131328 -1.35082 5.13018
          }
        }
      }
    }
  }
}
MOTION
Frames:	8
Frame Time:	0.0333333
30.6323 97.4391 -29.6579 82.685 33.1858 18.2753 -70.1915 0 88.8779 151.682 67.3436 -51.8306 -6.81442 27.323 3.64717 -130.792 29.3189 155.124 -139.436 71.1384 174.163 0.465718 -14.2097 -24.3577 -44.7446 64.9185 -79.3887 -31.123 7.08607 -100.914 0.420957 0.000575439 0.35866 -0.427327 7.43417 19.5003 -137.824 -33.7275 118.143 -14.543 4.87842 71.4925 0.58676 0.000331137 0.0646653 -53.9465 6.85982 77.4833 -3.01667 41.0442 -9.98357 7.58229 -12.5291 -1.22486 0.90773 -0.0552739 -4.67126 12.0874 -20.0076 94.1772 28.0139 80.0285 -13.4994 -2.90035 35.2267 -1.26534 0.272296 -8.12643 6.21441 
32.7492 97.4813 -29.4503 78.0521 37.8473 21.7993 -70.1915 0 88.8779 137.192 72.4997 -39.5341 -4.06214 26.3581 5.12218 -129.98 29.6157 151.034 -134.386 71.6448 168.571 0.477587 -14.0482 -24.7133 -45.7293 65.6109 -80.1581 -29.7888 7.09295 -101.544 0.420957 0.000575439 0.35866 -0.255346 5.37272 19.5431 -140.169 -30.981 114.991 -13.3061 4.51953 71.1984 0.58676 0.000331137 0.0646653 -50.9592 6.67347 75.5808 -3.30528 41.191 -12.6004 9.52448 -12.025 -1.26445 1.55846 -1.61862 -4.70435 1.25369 -22.2313 91.3673 38.9065 82.5574 -19.9877 -0.493455 36.4008 -2.43291 0.699635 -9.36489 5.56584 
35.642 97.3762 -29.1663 75.6075 41.2873 22.7597 -70.1915 0 88.8779 124.063 75.6604 -28.6999 -1.7752 27.2743 3.89523 -127.97 29.8456 147.05 -132.658 73.0507 166.748 0.484094 -14.1062 -24.2842 -45.0064 64.3989 -81.1627 -28.5077 6.92612 -101.891 0.420957 0.000575439 0.35866 -0.137694 4.10657 19.3316 -143.078 -27.8255 109.41 -13.8615 4.69719 71.273 0.58676 0.000331137 0.0646653 -50.4306 6.58197 75.7065 -3.48296 41.1915 -14.6227 9.58739 -13.1052 -1.27541 1.25762 -1.1632 -4.00825 -12.9213 -20.4049 89.1221 22.5651 78.2864 -3.04966 3.06721 35.6083 -3.89862 1.17447 -10.8406 1.93971 
38.2656 97.0513 -29.1408 75.0434 45.0318 21.7329 -70.1915 0 88.8779 116.382 77.0854 -22.8534 -0.263197 28.6643 1.12581 -125.532 30.2892 144.85 -136.356 75.3176 170.28 0.5875 -13.5067 -23.7168 -44.6518 62.4659 -81.8977 -27.9909 7.25947 -102.749 0.420957 0.000575439 0.35866 -0.165273 4.5468 19.1467 -146.125 -22.6159 103.078 -13.1041 4.37324 71.4913 0.58676 0.000331137 0.0646653 -51.9804 5.13341 74.5988 -3.63335 41.1863 -16.0747 7.80748 -15.0713 -1.25412 0.21147 0.635544 -2.58543 -29.247 -18.9652 85.3168 8.29537 65.3988 6.78741 -2.81736 32.0982 -1.18008 1.55491 -10.0357 -4.75671 
40.746 96.0546 -29.1692 73.8033 47.9963 20.4035 -70.1915 0 88.8779 101.926 78.4031 -10.1442 2.40823 29.8401 -2.45378 -124.186 30.8981 144.83 -145.286 77.2294 178.986 0.770702 -12.3631 -22.5692 -45.6386 62.1604 -82.1612 -26.5237 7.58233 -104.195 0.420957 0.000575439 0.35866 -0.218569 5.89937 18.0878 -148.807 -18.4835 96.9627 -11.4418 3.92614 70.9118 0.58676 0.000331137 0.0646653 -52.2079 2.3954 73.4556 -3.91239 42.7807 -16.9466 7.74311 -16.8148 -1.28085 0.317203 -0.0159017 -1.65331 -43.3004 -17.992 80.847 3.59902 48.6892 5.43331 -8.65686 27.2178 1.23048 1.9547 -13.2733 -8.63965 
42.8619 94.9381 -28.6531 72.3791 46.8174 18.8574 -70.1915 0 88.8779 87.6455 79.4774 4.11639 4.49201 31.7535 -6.85335 -123.965 31.2518 146.505 -157.538 77.8468 -168.599 0.970482 -10.8528 -21.7556 -47.4297 63.7057 -81.57 -25.3894 8.18591 -106.096 0.420957 0.000575439 0.35866 -0.126674 6.83116 15.6452 -150.046 -18.5876 91.9296 -11.5567 4.28355 69.5285 0.58676 0.000331137 0.0646653 -50.7192 1.05448 73.9805 -4.13359 45.2198 -16.1964 7.32432 -18.7748 -1.32079 0.59196 -1.20569 -0.303269 -50.2246 -16.0584 77.5341 1.28856 37.0028 -1.06614 -13.8211 19.5257 2.69709 2.47984 -20.9368 -6.99647 
44.1669 93.892 -27.9754 73.3165 41.0737 16.1509 -70.1915 0 88.8779 87.4928 80.2406 7.09935 5.17441 33.6864 -10.9324 -125.862 31.301 150.646 -165.91 76.644 -160.724 1.34587 -7.73975 -23.054 -53.0857 65.372 -77.7697 -22.2681 8.12531 -108.459 0.420957 0.000575439 0.35866 0.0194631 7.73636 12.981 -149.257 -23.4203 89.787 -11.6232 4.39906 69.1407 0.58676 0.000331137 0.0646653 -49.7737 1.85861 76.329 -4.04753 48.1871 -12.1713 7.31889 -20.0373 -1.33971 2.03236 -4.21296 -0.535356 -51.2143 -14.815 75.1463 2.29656 31.7016 -10.1736 -20.3212 11.879 3.92473 2.95133 -24.2798 -1.96042 
45.1953 93.1584 -27.2578 75.6003 31.0653 11.845 -70.1915 0 88.8779 92.4209 80.9607 5.02655 5.18195 35.0941 -13.3532 -129.65 30.7915 157.59 -169.401 74.0133 -157.787 1.92065 -4.24243 -24.9787 -67.0593 67.5373 -66.9371 -17.8772 7.11968 -110.467 0.420957 0.000575439 0.35866 0.203399 8.51187 10.4035 -146.249 -34.0962 90.9931 -6.75935 2.26383 71.0626 0.58676 0.000331137 0.0646653 -51.1043 4.79745 82.0763 -3.91283 49.3319 -8.50502 6.13995 -20.4857 -1.41159 3.8362 -8.34422 0.228852 -48.3042 -13.3 75.3244 3.41907 30.7349 -8.03442 -23.2847 9.16518 4.31822 3.11437 -24.1362 1.36691 
